<svg xmlns="http://www.w3.org/2000/svg" width="51" height="51" viewBox="0 0 51 51"><path d="M25.5,51.428A6.072,6.072,0,1,0,31.574,57.5,6.072,6.072,0,0,0,25.5,51.428ZM39.7,46.76A6.147,6.147,0,0,0,36.235,43.3c-2.391-.944-8.083-.732-10.735-.732s-8.339-.22-10.736.732A6.147,6.147,0,0,0,11.3,46.76c-.943,2.391-.732,8.088-.732,10.738s-.211,8.341.737,10.74A6.147,6.147,0,0,0,14.768,71.7c2.391.944,8.083.732,10.736.732s8.338.22,10.735-.732A6.147,6.147,0,0,0,39.7,68.238c.951-2.391.732-8.088.732-10.738s.219-8.34-.732-10.738ZM25.5,66.835A9.323,9.323,0,1,1,32.1,64.1a9.335,9.335,0,0,1-6.6,2.731Zm9.72-16.882a2.167,2.167,0,1,1,1.544-.636,2.179,2.179,0,0,1-1.544.636ZM45.536,32H5.464A5.464,5.464,0,0,0,0,37.464V77.536A5.464,5.464,0,0,0,5.464,83H45.536A5.464,5.464,0,0,0,51,77.536V37.464A5.464,5.464,0,0,0,45.536,32ZM43.587,65.013c-.147,2.918-.813,5.5-2.943,7.627s-4.713,2.8-7.627,2.943c-3.006.17-12.02.17-15.027,0-2.918-.147-5.494-.814-7.627-2.943s-2.8-4.715-2.943-7.627c-.17-3.008-.17-12.023,0-15.027.147-2.918.8-5.5,2.943-7.627s4.721-2.8,7.627-2.935c3.006-.17,12.02-.17,15.027,0,2.918.147,5.5.814,7.627,2.943s2.8,4.715,2.943,7.633C43.756,53,43.756,62,43.587,65.013Z" transform="translate(0 -32)" fill="#f3ef7c"/></svg>