<svg xmlns="http://www.w3.org/2000/svg" width="51" height="51" viewBox="0 0 51 51"><path d="M45.536,32H5.464A5.466,5.466,0,0,0,0,37.464V77.536A5.466,5.466,0,0,0,5.464,83H45.536A5.466,5.466,0,0,0,51,77.536V37.464A5.466,5.466,0,0,0,45.536,32ZM39.969,50.078c.023.319.023.649.023.968,0,9.87-7.513,21.242-21.242,21.242A21.144,21.144,0,0,1,7.286,68.941a15.73,15.73,0,0,0,1.8.091,14.969,14.969,0,0,0,9.267-3.187,7.476,7.476,0,0,1-6.978-5.18,8.047,8.047,0,0,0,3.37-.137A7.467,7.467,0,0,1,8.766,53.2v-.091a7.461,7.461,0,0,0,3.37.945,7.45,7.45,0,0,1-3.324-6.216,7.373,7.373,0,0,1,1.013-3.768,21.2,21.2,0,0,0,15.391,7.809,7.482,7.482,0,0,1,12.739-6.819,14.63,14.63,0,0,0,4.736-1.8,7.447,7.447,0,0,1-3.279,4.11,14.858,14.858,0,0,0,4.3-1.161A15.715,15.715,0,0,1,39.969,50.078Z" transform="translate(0 -32)" fill="#f3ef7c"/></svg>